<?xml version="1.0" standalone="no"?>
<!DOCTYPE svg PUBLIC "-//W3C//DTD SVG 20010904//EN"
 "http://www.w3.org/TR/2001/REC-SVG-20010904/DTD/svg10.dtd">
<svg version="1.0" xmlns="http://www.w3.org/2000/svg"
 width="166.000000pt" height="60.000000pt" viewBox="0 0 166.000000 60.000000"
 preserveAspectRatio="xMidYMid meet">

<g transform="translate(0.000000,60.000000) scale(0.100000,-0.100000)"
fill="#000000" stroke="none">
<path d="M1290 375 c0 -8 7 -15 16 -15 28 0 84 -32 96 -54 6 -11 14 -34 18
-51 9 -45 35 -39 34 7 -1 45 -24 82 -67 108 -39 24 -97 27 -97 5z"/>
<path d="M60 251 c-78 -78 -32 -201 75 -201 26 0 51 7 65 18 20 16 21 19 6 31
-13 11 -20 11 -28 3 -19 -19 -73 -14 -93 8 -26 29 -23 89 5 112 25 21 70 24
88 6 9 -9 16 -9 28 4 15 15 14 17 -14 32 -49 26 -99 21 -132 -13z"/>
<path d="M1260 240 c0 -11 -7 -20 -15 -20 -8 0 -15 -6 -15 -14 0 -8 7 -16 15
-20 11 -4 15 -21 15 -59 0 -29 5 -58 12 -65 13 -13 78 -17 78 -4 0 14 -15 27
-30 27 -11 0 -16 14 -18 53 -3 47 -1 52 17 52 12 0 21 7 21 15 0 8 -9 15 -20
15 -13 0 -20 7 -20 20 0 13 -7 20 -20 20 -13 0 -20 -7 -20 -20z"/>
<path d="M303 222 c-59 -9 -83 -103 -38 -147 53 -54 145 -16 145 58 0 60 -46
98 -107 89z m51 -48 c21 -20 20 -53 -1 -76 -20 -22 -37 -23 -57 -2 -30 30 -10
94 29 94 7 0 21 -7 29 -16z"/>
<path d="M525 220 c-11 -4 -32 -5 -47 -3 l-28 6 0 -87 c0 -79 2 -86 20 -86 18
0 20 7 20 54 0 36 5 60 16 70 37 38 64 10 64 -66 0 -51 2 -58 20 -58 18 0 20
7 20 68 0 37 -4 72 -8 79 -12 18 -55 31 -77 23z"/>
<path d="M728 215 c-16 -7 -28 -10 -28 -4 0 5 -9 9 -20 9 -18 0 -20 -7 -20
-85 0 -78 2 -85 20 -85 18 0 20 7 20 53 0 42 5 58 21 73 34 30 53 9 57 -65 3
-53 6 -61 22 -61 18 0 20 7 20 68 0 94 -33 129 -92 97z"/>
<path d="M922 222 c-32 -5 -64 -59 -57 -97 8 -45 42 -75 84 -75 44 0 66 13 58
34 -5 13 -11 14 -30 5 -28 -13 -67 2 -67 26 0 12 14 15 60 15 52 0 60 3 60 19
0 45 -53 81 -108 73z m56 -44 c21 -21 13 -28 -33 -28 -43 0 -45 1 -35 20 12
22 49 27 68 8z"/>
<path d="M1125 222 c-66 -13 -91 -110 -39 -151 31 -24 80 -27 108 -6 16 12 17
17 6 30 -11 13 -15 13 -33 0 -12 -8 -25 -15 -29 -15 -17 0 -38 34 -38 61 0 37
36 57 70 39 15 -8 25 -9 33 -1 23 23 -30 52 -78 43z"/>
</g>
</svg>
