<svg version="1.0" xmlns="http://www.w3.org/2000/svg"
 width="512.000000pt" height="512.000000pt" viewBox="0 0 512.000000 512.000000"
 preserveAspectRatio="xMidYMid meet">

<g transform="translate(0.000000,512.000000) scale(0.100000,-0.100000)"
fill="#000000" stroke="none">
<path d="M2266 4508 c-24 -498 -198 -1008 -480 -1412 -34 -49 -57 -74 -60 -65
-3 8 -19 57 -36 109 -26 80 -133 302 -175 363 -10 14 -16 -5 -39 -120 -56
-286 -109 -440 -244 -708 -87 -174 -123 -271 -152 -405 -111 -505 38 -1020
399 -1381 171 -171 355 -283 659 -403 l44 -17 -33 58 c-18 32 -57 98 -86 146
-53 91 -102 212 -131 327 -12 48 -16 111 -16 235 0 199 11 253 98 473 29 75
61 160 70 187 34 106 66 276 78 411 8 97 16 140 23 138 19 -8 101 -155 134
-239 41 -108 56 -174 81 -349 11 -83 22 -151 24 -153 4 -4 139 277 166 346 50
129 72 248 77 426 6 186 -5 277 -51 435 -13 47 -22 87 -20 90 10 10 253 -251
317 -340 80 -113 204 -358 247 -489 17 -51 42 -150 57 -220 24 -114 27 -147
27 -341 1 -225 -5 -283 -51 -465 -42 -172 -114 -336 -245 -563 -33 -57 -58
-106 -55 -108 5 -6 305 160 372 205 347 236 598 569 723 962 184 576 75 1297
-282 1862 -30 49 -99 147 -153 218 l-98 130 -6 -173 c-4 -112 -12 -194 -23
-233 -19 -69 -65 -172 -97 -217 -27 -37 -30 -32 -54 77 -92 421 -369 862 -715
1138 -66 53 -273 197 -283 197 -2 0 -7 -60 -11 -132z"/>
</g>
</svg>